<svg xmlns="http://www.w3.org/2000/svg" viewBox="0 0 32 32">
  <rect width="32" height="32" rx="6" fill="#10100E"/>
  <g transform="translate(16,16) scale(0.3)" fill="#C0492C">
    <ellipse cx="0" cy="0" rx="10" ry="10" opacity="0.5"/>
    <path d="M0,-46 L7,-17 L0,-5 L-7,-17 Z"/>
    <path d="M0,-46 L7,-17 L0,-5 L-7,-17 Z" transform="rotate(44)"/>
    <path d="M0,-46 L7,-17 L0,-5 L-7,-17 Z" transform="rotate(-44)"/>
    <path d="M0,-46 L7,-17 L0,-5 L-7,-17 Z" transform="rotate(88)"/>
    <path d="M0,-46 L7,-17 L0,-5 L-7,-17 Z" transform="rotate(-88)"/>
    <path d="M0,-30 L5,-10 L0,-2 L-5,-10 Z" transform="rotate(132)"/>
    <path d="M0,-30 L5,-10 L0,-2 L-5,-10 Z" transform="rotate(-132)"/>
    <path d="M0,-30 L5,-10 L0,-2 L-5,-10 Z" transform="rotate(180)"/>
  </g>
</svg>
