<svg xmlns="http://www.w3.org/2000/svg" viewBox="0 0 1200 1500" width="1200" height="1500">
  <title>Mis XV con Sello — Sello Bravo</title>

  <!-- ================= CIRCULAR SEAL FRAME ================= -->
  <g fill="none" stroke="#D2326B" stroke-linecap="round">
    <!-- outer ring -->
    <circle cx="600" cy="690" r="500" stroke-width="10"/>
    <!-- thin inner companion ring -->
    <circle cx="600" cy="690" r="480" stroke-width="3"/>
    <!-- inner bordering ring (encloses the lockup) -->
    <circle cx="600" cy="690" r="360" stroke-width="6"/>
  </g>

  <!-- dotted bead ring between the outer pair (keepsake stamp texture) -->
  <g fill="#E2A53C">
    <!-- 48 beads around radius 490 -->
    <g>
      <circle cx="1090.00" cy="690.00" r="6"/>
      <circle cx="1088.32" cy="713.79" r="6"/>
      <circle cx="1083.32" cy="737.14" r="6"/>
      <circle cx="1075.06" cy="759.61" r="6"/>
      <circle cx="1063.66" cy="780.78" r="6"/>
      <circle cx="1049.30" cy="800.25" r="6"/>
      <circle cx="1032.22" cy="817.62" r="6"/>
      <circle cx="1012.69" cy="832.59" r="6"/>
      <circle cx="991.05" cy="844.87" r="6"/>
      <circle cx="967.66" cy="854.24" r="6"/>
      <circle cx="942.92" cy="860.54" r="6"/>
      <circle cx="917.27" cy="863.66" r="6"/>
      <circle cx="891.13" cy="863.55" r="6"/>
      <circle cx="864.97" cy="860.22" r="6"/>
      <circle cx="839.23" cy="853.71" r="6"/>
      <circle cx="814.37" cy="844.13" r="6"/>
      <circle cx="790.83" cy="831.65" r="6"/>
      <circle cx="769.04" cy="816.48" r="6"/>
      <circle cx="749.38" cy="798.88" r="6"/>
      <circle cx="732.22" cy="779.16" r="6"/>
      <circle cx="717.88" cy="757.65" r="6"/>
      <circle cx="706.62" cy="734.72" r="6"/>
      <circle cx="698.64" cy="710.75" r="6"/>
      <circle cx="694.10" cy="686.16" r="6"/>
      <circle cx="693.07" cy="661.34" r="6"/>
      <circle cx="695.56" cy="636.71" r="6"/>
      <circle cx="701.52" cy="612.66" r="6"/>
      <circle cx="710.83" cy="589.60" r="6"/>
      <circle cx="723.30" cy="567.92" r="6"/>
      <circle cx="738.69" cy="547.98" r="6"/>
      <circle cx="756.71" cy="530.12" r="6"/>
      <circle cx="777.01" cy="514.66" r="6"/>
      <circle cx="799.22" cy="501.86" r="6"/>
      <circle cx="822.93" cy="491.93" r="6"/>
      <circle cx="847.71" cy="485.02" r="6"/>
      <circle cx="873.13" cy="481.23" r="6"/>
      <circle cx="898.73" cy="480.60" r="6"/>
      <circle cx="924.07" cy="483.12" r="6"/>
      <circle cx="948.71" cy="488.73" r="6"/>
      <circle cx="972.21" cy="497.30" r="6"/>
      <circle cx="994.18" cy="508.67" r="6"/>
      <circle cx="1014.24" cy="522.62" r="6"/>
      <circle cx="1032.06" cy="538.92" r="6"/>
      <circle cx="1047.34" cy="557.27" r="6"/>
      <circle cx="1059.83" cy="577.36" r="6"/>
      <circle cx="1069.33" cy="598.84" r="6"/>
      <circle cx="1075.70" cy="621.36" r="6"/>
      <circle cx="1078.86" cy="644.55" r="6"/>
    </g>
  </g>

  <!-- ================= CURVED RIBBON TEXT TOP: [ NOMBRE ] ================= -->
  <defs>
    <path id="arcTop" d="M 200 690 A 400 400 0 0 1 1000 690" fill="none"/>
    <path id="arcBottom" d="M 220 690 A 380 380 0 0 0 980 690" fill="none"/>
  </defs>

  <text font-family="'Oswald','Arial Narrow',sans-serif" font-weight="600"
        font-size="62" letter-spacing="22" fill="#1B1714">
    <textPath href="#arcTop" startOffset="50%" text-anchor="middle">[ NOMBRE ]</textPath>
  </text>

  <text font-family="'Oswald','Arial Narrow',sans-serif" font-weight="600"
        font-size="56" letter-spacing="20" fill="#1B1714">
    <textPath href="#arcBottom" startOffset="50%" text-anchor="middle">[ FECHA ]</textPath>
  </text>

  <!-- side ornament dots flanking the lockup -->
  <g fill="#E2A53C">
    <circle cx="244" cy="690" r="11"/>
    <circle cx="956" cy="690" r="11"/>
  </g>

  <!-- ================= CENTER LOCKUP: MIS XV (hero) ================= -->
  <!-- decorative rule above -->
  <g stroke="#E2A53C" stroke-width="6" stroke-linecap="round" fill="none">
    <line x1="440" y1="555" x2="760" y2="555"/>
  </g>

  <text x="600" y="640" text-anchor="middle"
        font-family="'Oswald','Arial Narrow',sans-serif" font-weight="600"
        font-size="58" letter-spacing="26" fill="#D2326B">MIS</text>

  <text x="600" y="850" text-anchor="middle"
        font-family="'Anton',Impact,sans-serif"
        font-size="320" letter-spacing="6" fill="#D2326B">XV</text>

  <!-- decorative rule below -->
  <g stroke="#E2A53C" stroke-width="6" stroke-linecap="round" fill="none">
    <line x1="440" y1="900" x2="760" y2="900"/>
  </g>

  <!-- small amber star accents -->
  <g fill="#E2A53C">
    <path d="M600 905 l8 20 22 2 -17 14 6 22 -19 -12 -19 12 6 -22 -17 -14 22 -2 z"/>
  </g>

  <!-- ================= BOTTOM TAGLINE / FOOTER ================= -->
  <text x="600" y="1300" text-anchor="middle"
        font-family="'Oswald','Arial Narrow',sans-serif" font-weight="600"
        font-size="46" letter-spacing="30" fill="#1B1714">UN DIA PARA RECORDAR</text>

  <!-- footer flourish -->
  <g stroke="#D2326B" stroke-width="5" stroke-linecap="round" fill="none">
    <line x1="430" y1="1345" x2="560" y2="1345"/>
    <line x1="640" y1="1345" x2="770" y2="1345"/>
  </g>
  <g fill="#E2A53C">
    <path d="M600 1330 l7 17 19 2 -15 12 5 19 -16 -10 -16 10 5 -19 -15 -12 19 -2 z"/>
  </g>
</svg>